<svg aria-hidden="true" style="position:absolute;width:0;height:0;overflow:hidden" xmlns="http://www.w3.org/2000/svg"><defs><symbol id="icon-twitter" viewBox="0 0 32 32"><path d="M16-.034C7.159-.034-.035 7.158-.035 16S7.159 32.034 16 32.034 32.035 24.842 32.035 16 24.841-.034 16-.034zm0 31C7.748 30.966 1.035 24.252 1.035 16S7.748 1.034 16 1.034 30.965 7.748 30.965 16 24.252 30.966 16 30.966zm8.794-19.92a3.73 3.73 0 0 0 .273-.643.535.535 0 0 0-.781-.623 6.033 6.033 0 0 1-1.646.673 3.831 3.831 0 0 0-2.562-.987 3.82 3.82 0 0 0-3.814 3.973 8.821 8.821 0 0 1-5.735-3.178.536.536 0 0 0-.876.07 3.813 3.813 0 0 0-.066 3.721.628.628 0 0 0-.214.078.571.571 0 0 0-.264.481c0 1.135.505 2.177 1.319 2.885l-.035.035a.534.534 0 0 0-.108.518 3.816 3.816 0 0 0 2.184 2.365 6.134 6.134 0 0 1-3.406.579.545.545 0 0 0-.566.352.536.536 0 0 0 .215.63 9.841 9.841 0 0 0 5.319 1.559c6.18 0 9.874-5.02 9.874-9.873l-.001-.164a7.122 7.122 0 0 0 1.541-1.66.535.535 0 0 0-.651-.791zm-1.745 1.755a.535.535 0 0 0-.222.461c.006.132.009.266.009.398 0 4.328-3.293 8.805-8.804 8.805a8.76 8.76 0 0 1-2.887-.488 7.073 7.073 0 0 0 3.045-1.39.535.535 0 0 0-.32-.955 2.752 2.752 0 0 1-2.194-1.162c.253-.017.501-.059.742-.124a.534.534 0 0 0-.036-1.04 2.741 2.741 0 0 1-2.081-1.905c.266.067.539.106.812.115.235-.001.453-.145.526-.371s-.013-.475-.212-.607a2.746 2.746 0 0 1-1.143-2.945 9.883 9.883 0 0 0 6.568 2.972c.176.001.33-.062.437-.191s.148-.3.11-.464a2.75 2.75 0 0 1 4.682-2.506.535.535 0 0 0 .494.159c.165-.033.328-.071.489-.115a2.538 2.538 0 0 1-.226.151.535.535 0 0 0 .338.988l.182-.023a5.605 5.605 0 0 1-.309.237z"/></symbol><symbol id="icon-twitter1" viewBox="0 0 32 32"><path  d="M31.939 6.092a13.31 13.31 0 0 1-3.767 1.033 6.613 6.613 0 0 0 2.884-3.631 13.55 13.55 0 0 1-4.169 1.579A6.56 6.56 0 0 0 15.539 9.55c0 .52.06 1.02.169 1.499-5.453-.257-10.287-2.876-13.521-6.835a6.432 6.432 0 0 0-.888 3.3 6.56 6.56 0 0 0 2.917 5.461 6.554 6.554 0 0 1-2.971-.821v.081a6.564 6.564 0 0 0 5.261 6.436 6.663 6.663 0 0 1-2.949.113 6.582 6.582 0 0 0 6.139 4.556 13.156 13.156 0 0 1-8.136 2.807c-.52 0-1.039-.031-1.56-.089a18.657 18.657 0 0 0 10.076 2.945c12.072 0 18.665-9.995 18.665-18.648 0-.279 0-.56-.02-.84 1.281-.919 2.4-2.08 3.28-3.397z"/></symbol><symbol id="icon-facebook" viewBox="0 0 16 28"><path d="M14.984.187v4.125h-2.453c-1.922 0-2.281.922-2.281 2.25v2.953h4.578l-.609 4.625H10.25v11.859H5.469V14.14H1.485V9.515h3.984V6.109C5.469 2.156 7.891 0 11.422 0c1.687 0 3.141.125 3.563.187z"/></symbol><symbol id="icon-instagram" viewBox="0 0 24 28"><path d="M16 14c0-2.203-1.797-4-4-4s-4 1.797-4 4 1.797 4 4 4 4-1.797 4-4zm2.156 0c0 3.406-2.75 6.156-6.156 6.156S5.844 17.406 5.844 14 8.594 7.844 12 7.844s6.156 2.75 6.156 6.156zm1.688-6.406c0 .797-.641 1.437-1.437 1.437S16.97 8.39 16.97 7.594s.641-1.437 1.437-1.437 1.437.641 1.437 1.437zM12 4.156c-1.75 0-5.5-.141-7.078.484-.547.219-.953.484-1.375.906s-.688.828-.906 1.375c-.625 1.578-.484 5.328-.484 7.078s-.141 5.5.484 7.078c.219.547.484.953.906 1.375s.828.688 1.375.906c1.578.625 5.328.484 7.078.484s5.5.141 7.078-.484c.547-.219.953-.484 1.375-.906s.688-.828.906-1.375c.625-1.578.484-5.328.484-7.078s.141-5.5-.484-7.078c-.219-.547-.484-.953-.906-1.375s-.828-.688-1.375-.906C17.5 4.015 13.75 4.156 12 4.156zM24 14c0 1.656.016 3.297-.078 4.953-.094 1.922-.531 3.625-1.937 5.031s-3.109 1.844-5.031 1.937c-1.656.094-3.297.078-4.953.078s-3.297.016-4.953-.078c-1.922-.094-3.625-.531-5.031-1.937S.173 20.875.08 18.953C-.014 17.297.002 15.656.002 14s-.016-3.297.078-4.953c.094-1.922.531-3.625 1.937-5.031s3.109-1.844 5.031-1.937c1.656-.094 3.297-.078 4.953-.078s3.297-.016 4.953.078c1.922.094 3.625.531 5.031 1.937s1.844 3.109 1.937 5.031C24.016 10.703 24 12.344 24 14z"/></symbol><symbol id="icon-envelop" viewBox="0 0 32 32"><path d="M29 4H3C1.35 4 0 5.35 0 7v20c0 1.65 1.35 3 3 3h26c1.65 0 3-1.35 3-3V7c0-1.65-1.35-3-3-3zM12.461 17.199 4 23.789V8.113l8.461 9.086zM5.512 8h20.976L16 15.875 5.512 8zm7.278 9.553L16 21l3.21-3.447L25.79 26H6.211l6.58-8.447zm6.749-.354L28 8.113v15.676l-8.461-6.59z"/></symbol><symbol id="icon-mobile" viewBox="0 0 32 32"><path d="M23 0H9C7.35 0 6 1.35 6 3v26c0 1.65 1.35 3 3 3h14c1.65 0 3-1.35 3-3V3c0-1.65-1.35-3-3-3zM12 1.5h8v1h-8v-1zM16 30a2 2 0 1 1-.001-3.999A2 2 0 0 1 16 30zm8-6H8V4h16v20z"/></symbol><symbol id="icon-facebook1" viewBox="0 0 32 32"><path d="M19 6h5V0h-5c-3.86 0-7 3.14-7 7v3H8v6h4v16h6V16h5l1-6h-6V7c0-.542.458-1 1-1z"/></symbol><symbol id="icon-instagram1" viewBox="0 0 32 32"><path d="M16 2.881c4.275 0 4.781.019 6.462.094 1.563.069 2.406.331 2.969.55a4.952 4.952 0 0 1 1.837 1.194 5.015 5.015 0 0 1 1.2 1.838c.219.563.481 1.412.55 2.969.075 1.688.094 2.194.094 6.463s-.019 4.781-.094 6.463c-.069 1.563-.331 2.406-.55 2.969a4.94 4.94 0 0 1-1.194 1.837 5.02 5.02 0 0 1-1.837 1.2c-.563.219-1.413.481-2.969.55-1.688.075-2.194.094-6.463.094s-4.781-.019-6.463-.094c-1.563-.069-2.406-.331-2.969-.55a4.952 4.952 0 0 1-1.838-1.194 5.02 5.02 0 0 1-1.2-1.837c-.219-.563-.481-1.413-.55-2.969-.075-1.688-.094-2.194-.094-6.463s.019-4.781.094-6.463c.069-1.563.331-2.406.55-2.969a4.964 4.964 0 0 1 1.194-1.838 5.015 5.015 0 0 1 1.838-1.2c.563-.219 1.412-.481 2.969-.55 1.681-.075 2.188-.094 6.463-.094zM16 0c-4.344 0-4.887.019-6.594.094-1.7.075-2.869.35-3.881.744-1.056.412-1.95.956-2.837 1.85a7.833 7.833 0 0 0-1.85 2.831C.444 6.538.169 7.7.094 9.4.019 11.113 0 11.656 0 16s.019 4.887.094 6.594c.075 1.7.35 2.869.744 3.881.413 1.056.956 1.95 1.85 2.837a7.82 7.82 0 0 0 2.831 1.844c1.019.394 2.181.669 3.881.744 1.706.075 2.25.094 6.594.094s4.888-.019 6.594-.094c1.7-.075 2.869-.35 3.881-.744 1.05-.406 1.944-.956 2.831-1.844s1.438-1.781 1.844-2.831c.394-1.019.669-2.181.744-3.881.075-1.706.094-2.25.094-6.594s-.019-4.887-.094-6.594c-.075-1.7-.35-2.869-.744-3.881a7.506 7.506 0 0 0-1.831-2.844A7.82 7.82 0 0 0 26.482.843C25.463.449 24.301.174 22.601.099c-1.712-.081-2.256-.1-6.6-.1z"/><path d="M16 7.781c-4.537 0-8.219 3.681-8.219 8.219s3.681 8.219 8.219 8.219 8.219-3.681 8.219-8.219A8.221 8.221 0 0 0 16 7.781zm0 13.55a5.331 5.331 0 1 1 0-10.663 5.331 5.331 0 0 1 0 10.663zM26.462 7.456a1.919 1.919 0 1 1-3.838 0 1.919 1.919 0 0 1 3.838 0z"/></symbol><symbol id="icon-twitter11" viewBox="0 0 32 32"><path d="M32 7.075a12.941 12.941 0 0 1-3.769 1.031 6.601 6.601 0 0 0 2.887-3.631 13.21 13.21 0 0 1-4.169 1.594A6.565 6.565 0 0 0 22.155 4a6.563 6.563 0 0 0-6.563 6.563c0 .512.056 1.012.169 1.494A18.635 18.635 0 0 1 2.23 5.195a6.56 6.56 0 0 0-.887 3.3 6.557 6.557 0 0 0 2.919 5.463 6.565 6.565 0 0 1-2.975-.819v.081a6.565 6.565 0 0 0 5.269 6.437 6.574 6.574 0 0 1-2.968.112 6.588 6.588 0 0 0 6.131 4.563 13.17 13.17 0 0 1-9.725 2.719 18.568 18.568 0 0 0 10.069 2.95c12.075 0 18.681-10.006 18.681-18.681 0-.287-.006-.569-.019-.85A13.216 13.216 0 0 0 32 7.076z"/></symbol><symbol id="icon-linkedin2" viewBox="0 0 32 32"><path d="M12 12h5.535v2.837h.079c.77-1.381 2.655-2.837 5.464-2.837C28.92 12 30 15.637 30 20.367V30h-5.769v-8.54c0-2.037-.042-4.657-3.001-4.657-3.005 0-3.463 2.218-3.463 4.509V30H12V12zM2 12h6v18H2V12zM8 7a3 3 0 1 1-6 0 3 3 0 0 1 6 0z"/></symbol></defs></svg>